<svg width="32" height="32" viewBox="0 0 32 32" fill="none" xmlns="http://www.w3.org/2000/svg">
<path fill-rule="evenodd" clip-rule="evenodd" d="M18.8595 3.47909C18.8321 3.47641 18.8101 3.47426 18.7957 3.47292C18.7352 3.46729 18.3836 3.46729 18.0127 3.47292C17.3314 3.48135 17.1336 3.49823 15.87 3.65009C15.4854 3.69509 14.9771 3.75414 14.7436 3.77946C13.9167 3.86945 13.2272 4.04662 12.7382 4.29973C12.6228 4.35879 12.3206 4.55002 12.0652 4.72157C11.5872 5.0478 11.2163 5.26434 10.9526 5.3684C10.8701 5.40215 10.4498 5.55401 10.0185 5.70587C8.61199 6.20084 8.10102 6.40613 7.42247 6.75486C6.30713 7.32294 5.62584 7.92758 5.29618 8.63909C4.96103 9.36185 4.76598 10.3377 4.81268 11.0773C4.86488 11.9238 5.04619 12.6325 5.49123 13.7209C6.13131 15.2789 6.21098 15.5264 6.30713 16.252C6.41427 17.0422 6.4335 17.3572 6.4335 18.2346C6.4335 19.2302 6.39229 19.638 6.22746 20.2988C5.84836 21.8203 4.99125 22.7202 3.67811 22.9761C3.58471 22.993 3.50778 23.0211 3.50778 23.0324C3.50778 23.0802 3.90887 23.488 4.07645 23.6089C4.86488 24.1882 6.11483 24.3064 7.52137 23.9436C7.67521 23.9042 7.80433 23.8761 7.81257 23.8817C7.81806 23.8901 7.77411 23.997 7.71367 24.1207C7.43896 24.6804 6.81261 26.1006 6.46097 26.9668C6.26722 27.444 6.07893 27.9241 5.89543 28.409C2.29755 25.4747 -1.15936e-06 21.0066 -1.15936e-06 16.0019C-1.15936e-06 7.16429 7.16429 0 16.0019 0C24.8395 0 32.0038 7.16429 32.0038 16.0019C32.0038 22.7546 27.8211 28.5304 21.9051 30.8797C21.8002 30.7556 21.6733 30.6137 21.5208 30.4484C21.2461 30.1503 20.9714 29.8409 20.9082 29.765L20.7956 29.6244L20.6912 29.0001C20.6335 28.6542 20.5923 28.3645 20.6005 28.356C20.6115 28.3476 20.7077 28.3223 20.8148 28.2998C21.4439 28.1648 21.8423 27.7964 22.6389 26.6124C23.1334 25.8728 23.6609 25.2541 24.1389 24.8463C24.268 24.7366 24.5482 24.5229 24.7625 24.371C25.2432 24.0307 25.5262 23.7861 25.68 23.5752C25.8064 23.4064 25.8256 23.3867 26.0481 23.1871C26.1553 23.0914 26.2157 23.0605 26.3201 23.0464C26.7349 22.993 27.0811 22.633 27.2487 22.0903C27.3256 21.8428 27.3448 21.3816 27.2871 21.1341C27.2047 20.7741 26.941 20.2988 26.6086 19.9136C26.5207 19.8123 26.5097 19.7814 26.5289 19.7139C26.5619 19.5958 26.6278 19.4777 26.6937 19.4158C26.8256 19.2977 26.9135 19.1177 26.9135 18.9686C26.9135 18.8365 26.9053 18.8196 26.7734 18.693L26.6305 18.558L26.7981 18.1981C26.8915 18.0012 26.9739 17.8128 26.9822 17.7762C27.0096 17.6806 26.9492 17.554 26.8558 17.5175C26.8036 17.495 26.7761 17.4612 26.7761 17.4219C26.7761 17.2025 26.5756 16.716 26.3201 16.3166C26.2157 16.1479 26.1718 16.0551 26.1773 16.0017C26.1855 15.9342 26.1992 15.9257 26.3641 15.906C26.9162 15.8357 27.4877 15.4673 27.6827 15.0539C27.7761 14.8571 27.7843 14.6208 27.7102 14.4183C27.5866 14.0752 27.2679 13.7181 26.3503 12.8828C25.4053 12.0223 24.9932 11.5751 24.8119 11.2067C24.7295 11.0408 24.724 10.8889 24.7845 10.4727C24.8531 9.98618 24.8312 9.79775 24.6911 9.65151C24.6389 9.59808 24.6086 9.5334 24.5977 9.45184C24.5674 9.20717 24.4548 9.03843 23.9988 8.55754C23.7598 8.30724 23.5125 8.02039 23.4521 7.92477C23.3312 7.73353 23.2515 7.4973 23.2653 7.37356C23.2735 7.30044 23.2873 7.29482 23.5153 7.24982C24.4933 7.05296 25.0784 6.59456 25.2405 5.90273C25.2735 5.76212 25.2872 5.15748 25.2597 5.12654C25.2515 5.12092 25.1114 5.08998 24.9465 5.05905C24.0757 4.89875 23.0812 4.60627 22.0648 4.20692C21.0511 3.81039 20.2187 3.60791 19.2215 3.51229C19.0898 3.50159 18.9469 3.48763 18.8595 3.47909Z" fill="#1F093F"/>
</svg>
