<svg width="48" height="48" viewBox="0 0 48 48" fill="none" xmlns="http://www.w3.org/2000/svg">
<circle cx="24" cy="24" r="24" fill="#270E45"/>
<path fill-rule="evenodd" clip-rule="evenodd" d="M22.831 8.07094C18.353 8.36045 14.0636 10.6575 11.2915 14.2504C10.6392 15.0959 10.2143 15.7801 9.65936 16.8788C8.71737 18.7435 8.21649 20.523 8.01738 22.7126C7.86601 24.3776 8.03367 26.3071 8.47791 28.0108C9.18436 30.7202 10.5086 33.0761 12.4536 35.0836C12.9941 35.6414 13.7572 36.3406 13.8257 36.3406C13.8464 36.3406 13.8634 35.233 13.8634 33.8794V31.4182L13.6865 31.1341C13.074 30.1505 13.8604 29.0389 15.7415 28.2292C19.9494 26.418 27.7822 26.4792 31.734 28.3542C32.7318 28.8275 33.3187 29.3164 33.5914 29.9011C33.7436 30.2275 33.7777 30.674 33.6504 30.674C33.6076 30.674 33.253 30.776 32.8624 30.9007C32.4718 31.0254 32.1365 31.1274 32.1173 31.1274C32.0981 31.1274 32.0824 30.8908 32.0824 30.6017C32.0824 29.9968 32.0076 29.8241 31.7456 29.8241C31.4783 29.8241 31.4324 29.9435 31.4013 30.7193L31.3729 31.4275L30.9202 31.6174C30.6712 31.7219 30.4477 31.8073 30.4236 31.8073C30.3994 31.8073 30.3797 31.2962 30.3797 30.6715V29.5356L30.2368 29.393C30.1324 29.2887 30.06 29.2606 29.9672 29.2883C29.6754 29.3756 29.6715 29.3953 29.6524 30.8349L29.6346 32.1817L29.0416 32.4762C28.7155 32.6382 28.4371 32.7706 28.4231 32.7706C28.4091 32.7706 28.3902 31.9446 28.3812 30.9349C28.3659 29.2222 28.3575 29.0912 28.2567 28.98C28.1181 28.8272 27.8736 28.8273 27.7351 28.98C27.6336 29.0918 27.6259 29.2255 27.6108 31.1532L27.5946 33.2073L26.9581 33.5503L26.3216 33.8933L26.2932 31.3912C26.2776 30.015 26.2427 28.8438 26.2155 28.7883C26.1049 28.562 25.814 28.5152 25.6228 28.693L25.4986 28.8085L25.4981 31.5687L25.4977 34.3289L25.2853 34.448C24.6722 34.7917 24.1961 35.0373 24.1425 35.0373C24.101 35.0373 24.0775 34.0419 24.0668 31.8311C24.0518 28.7322 24.0476 28.6222 23.9411 28.5445C23.7581 28.411 23.4801 28.4432 23.3459 28.6134C23.2299 28.7607 23.2283 28.809 23.2283 32.1464V35.53L22.6108 35.8503C22.2712 36.0264 21.952 36.1706 21.9014 36.1706C21.8175 36.1706 21.8094 35.8459 21.8094 32.4873C21.8094 28.8796 21.807 28.8018 21.6958 28.6908C21.6334 28.6284 21.5185 28.5774 21.4404 28.5774C21.3624 28.5774 21.2475 28.6284 21.185 28.6908C21.0737 28.8019 21.0715 28.8796 21.0715 32.6842V36.5643L20.9154 36.6448C20.7683 36.7207 19.764 37.1339 19.7267 37.1339C19.7172 37.1339 19.7093 35.3501 19.7093 33.17C19.7093 30.2613 19.6916 29.1673 19.6429 29.0604C19.5592 28.8772 19.3384 28.8171 19.1457 28.925L18.9999 29.0067L18.9715 33.1978L18.9431 37.3889L18.4323 37.5153C18.1514 37.5849 17.8641 37.6555 17.7938 37.6722L17.6661 37.7027V33.6192V29.5356L17.5232 29.393C17.4188 29.2887 17.3464 29.2606 17.2536 29.2883C16.9411 29.3818 16.9579 29.1486 16.9414 33.6454L16.9261 37.8028L16.2707 37.8437C14.5473 37.9512 12.5761 37.5944 10.8003 36.8536C9.67333 36.3834 8.09945 35.4464 7.30111 34.7702C6.84875 34.3871 6.8886 34.4742 7.53983 35.2922C8.14395 36.0511 9.51736 37.429 10.1742 37.9353C14.1338 40.9871 18.7472 41.0826 23.9094 38.2196C25.0593 37.5817 26.446 36.6441 27.6553 35.6865C30.1078 33.7447 32.5791 32.5587 35.5446 31.9006C37.2985 31.5113 39.3665 31.3465 41.1213 31.4562C41.722 31.4939 42.2774 31.5375 42.3554 31.5533C42.4335 31.5691 42.2419 31.4551 41.9298 31.3C41.2311 30.9529 40.2078 30.609 39.3615 30.4371C38.9617 30.3559 38.723 30.2811 38.723 30.2372C38.723 30.1986 38.7968 29.9815 38.8869 29.7547C39.2236 28.908 39.5726 27.6375 39.7393 26.6508C40.4259 22.5871 39.4796 18.3146 37.1474 14.9495C35.5682 12.6707 33.3982 10.8123 30.9383 9.63207C28.9047 8.65624 27.01 8.17816 24.6167 8.03695L23.9902 8L24.0099 8.58478C24.0207 8.90647 24.0654 9.29712 24.1092 9.45295C24.153 9.60878 24.197 9.92027 24.2069 10.1452C24.2223 10.4932 24.247 10.5776 24.3725 10.7118C24.4535 10.7986 24.5485 10.9253 24.5835 10.9933C24.7216 11.2616 24.7068 11.2662 23.7187 11.2662H22.7903L22.8379 11.1005C22.8641 11.0094 22.9482 10.8691 23.0249 10.7888C23.2214 10.5831 23.285 10.3794 23.285 9.95551C23.285 9.75294 23.3146 9.532 23.3508 9.46457C23.3869 9.39714 23.4248 9.07839 23.4349 8.7562C23.445 8.43405 23.4669 8.14841 23.4836 8.12149C23.5353 8.03802 23.4464 8.03117 22.831 8.07094ZM22.9445 11.7719C22.3828 11.9269 22.0265 12.1933 21.9444 12.5197C21.9018 12.6893 22.0545 13.112 22.2087 13.2514C22.3098 13.3427 22.3202 13.4291 22.3202 14.1839V15.0157L22.1499 15.1672C22.0563 15.2505 21.9796 15.3405 21.9796 15.3671C21.9796 15.3937 22.1776 15.3649 22.4195 15.3029C23.0697 15.1365 24.3294 15.1391 24.9827 15.3082C25.2453 15.3762 25.4708 15.4211 25.4839 15.4079C25.5275 15.3644 25.3841 15.1513 25.2702 15.0905C25.1664 15.035 25.158 14.9694 25.158 14.2152C25.158 13.4425 25.165 13.3915 25.2915 13.2397C25.4876 13.0043 25.5553 12.8537 25.5553 12.6528C25.5553 12.0836 24.789 11.6857 23.713 11.6963C23.4308 11.6991 23.085 11.7331 22.9445 11.7719ZM22.9445 14.0145C22.9445 14.8833 22.9492 14.9211 23.058 14.9211C23.1668 14.9211 23.1715 14.8833 23.1715 14.0145C23.1715 13.1456 23.1668 13.1079 23.058 13.1079C22.9492 13.1079 22.9445 13.1456 22.9445 14.0145ZM23.6384 13.9996C23.6523 14.7966 23.6645 14.8934 23.7533 14.9104C23.8446 14.9279 23.8526 14.8556 23.8526 14.0186C23.8526 13.1418 23.8483 13.1079 23.7377 13.1079C23.6264 13.1079 23.6232 13.1368 23.6384 13.9996ZM24.3194 13.9996C24.3334 14.7966 24.3456 14.8934 24.4344 14.9104C24.5256 14.9279 24.5337 14.8556 24.5337 14.0186C24.5337 13.1418 24.5294 13.1079 24.4188 13.1079C24.3075 13.1079 24.3043 13.1368 24.3194 13.9996ZM22.8162 15.6868C21.0044 16.0304 19.4802 17.211 18.4774 19.0477C18.1152 19.7111 17.8738 20.3531 17.6402 21.2734C17.4456 22.0401 17.2927 22.436 17.1115 22.6418C16.9836 22.7869 17.089 22.7646 17.575 22.5435C21.0187 20.9767 26.7109 21.04 29.9824 22.6815L30.5622 22.9725L30.4357 22.7681C30.1875 22.3671 30.0503 22.0232 29.8714 21.3535C29.5548 20.1686 29.2206 19.4159 28.5875 18.4627C28.0923 17.717 27.4093 17.0036 26.7628 16.5567C26.3675 16.2834 25.5002 15.8931 25.0161 15.7707C24.4045 15.6161 23.3928 15.5774 22.8162 15.6868ZM23.5141 19.3939C23.4818 19.4542 23.4553 19.6344 23.4553 19.7943C23.4553 20.1735 23.5281 20.3043 23.7391 20.3043C23.9501 20.3043 24.0229 20.1735 24.0229 19.7943C24.0229 19.4151 23.9501 19.2843 23.7391 19.2843C23.6328 19.2843 23.5516 19.3239 23.5141 19.3939ZM22.445 19.409C22.4057 19.4483 22.3769 19.6366 22.3769 19.8554C22.3769 20.2686 22.4451 20.3833 22.6718 20.3512C22.7909 20.3343 22.8041 20.2997 22.8198 19.9661C22.8429 19.4762 22.8045 19.341 22.6426 19.341C22.5714 19.341 22.4825 19.3716 22.445 19.409ZM24.7153 19.409C24.6759 19.4483 24.6472 19.6366 24.6472 19.8554C24.6472 20.2805 24.7225 20.3971 24.9586 20.3379C25.0937 20.304 25.1013 20.2815 25.1013 19.9112C25.1013 19.6962 25.0858 19.48 25.0668 19.4307C25.0262 19.325 24.8126 19.3119 24.7153 19.409ZM21.4259 19.5199C21.33 19.6156 21.3342 20.2539 21.4316 20.3868C21.4882 20.4642 21.5474 20.4811 21.6609 20.4527C21.8133 20.4145 21.8138 20.4126 21.7974 19.9485C21.7815 19.4985 21.7762 19.4821 21.6387 19.4661C21.5604 19.457 21.4647 19.4811 21.4259 19.5199ZM25.6951 19.5842C25.6772 19.6556 25.6703 19.8634 25.6799 20.0458C25.6993 20.4163 25.8106 20.5555 25.9952 20.4398C26.1173 20.3632 26.1689 19.6629 26.0619 19.5342C25.954 19.4044 25.7328 19.4346 25.6951 19.5842ZM20.4898 19.6855C20.4094 19.7322 20.3904 19.8228 20.3904 20.1585C20.3904 20.615 20.4798 20.7795 20.6648 20.6634C20.7826 20.5895 20.8315 19.8303 20.7266 19.7041C20.6488 19.6105 20.6224 19.6084 20.4898 19.6855ZM26.7773 19.7157C26.6481 19.8448 26.676 20.5772 26.8134 20.6634C26.9972 20.7787 27.0878 20.6148 27.0878 20.1671C27.0878 19.665 26.982 19.5113 26.7773 19.7157ZM19.4044 20.0509C19.3322 20.2389 19.3668 20.7475 19.458 20.8386C19.6648 21.045 19.7761 20.873 19.7546 20.3803C19.7385 20.0092 19.7314 19.9919 19.5889 19.9754C19.4919 19.9642 19.4277 19.9905 19.4044 20.0509ZM27.7466 20.054C27.7276 20.1033 27.7121 20.2932 27.7121 20.4761C27.7121 20.8404 27.811 20.9698 28.0086 20.8642C28.0876 20.822 28.1094 20.7383 28.1094 20.477C28.1094 20.0576 28.0732 19.9643 27.9107 19.9643C27.8394 19.9643 27.7655 20.0047 27.7466 20.054ZM18.5762 20.4706C18.5109 20.5923 18.5003 20.8864 18.554 21.0864C18.5789 21.1791 18.6239 21.2119 18.7093 21.1997C18.8154 21.1847 18.8317 21.1398 18.8468 20.8195C18.8586 20.5672 18.8413 20.442 18.79 20.4095C18.6791 20.3393 18.6407 20.3502 18.5762 20.4706ZM28.6809 20.4412C28.6416 20.4885 28.6213 20.6569 28.6315 20.8515C28.6455 21.1218 28.6679 21.1852 28.7553 21.2018C28.8988 21.2291 28.9588 21.1184 28.9599 20.8247C28.9613 20.4445 28.8292 20.2628 28.6809 20.4412ZM21.554 22.1163C19.694 22.336 18.2199 22.7623 16.985 23.4377C16.5862 23.6558 16.317 23.8588 15.9512 24.2172C15.3574 24.7989 15.157 25.1711 15.1221 25.7564C15.1022 26.0905 15.1209 26.1827 15.276 26.5135C15.4208 26.8224 15.4526 26.9615 15.4526 27.2865C15.4526 27.5801 15.471 27.676 15.5235 27.6562C15.5626 27.6415 15.7541 27.5717 15.9492 27.5009L16.3039 27.3723L16.3096 26.5157C16.3159 25.562 16.345 25.3859 16.5013 25.3558C16.7139 25.3149 16.758 25.491 16.758 26.3822C16.758 27.1581 16.7659 27.2229 16.8573 27.1966C16.9119 27.1809 17.0652 27.1369 17.1978 27.0988L17.4391 27.0295L17.4399 26.0044C17.4408 24.92 17.4844 24.6959 17.6945 24.6959C17.9012 24.6959 17.9482 24.9229 17.949 25.9283C17.9497 26.6811 17.9655 26.8775 18.0255 26.8775C18.0671 26.8775 18.2459 26.8485 18.4228 26.813L18.7445 26.7485V25.655C18.7445 24.4496 18.7775 24.2709 18.9999 24.2709C19.2211 24.2709 19.2553 24.4497 19.2553 25.6062C19.2553 26.2352 19.277 26.6508 19.3097 26.6508C19.3397 26.6508 19.5568 26.6222 19.7922 26.5872L20.2202 26.5237V25.3369C20.2202 24.1132 20.2494 23.9309 20.4459 23.9309C20.695 23.9309 20.731 24.1078 20.731 25.3337V26.4847L21.029 26.452C21.1928 26.434 21.4355 26.406 21.5681 26.3899L21.8094 26.3605V25.1282C21.8094 23.795 21.8334 23.6758 22.0949 23.713C22.341 23.748 22.3752 23.9243 22.3761 25.1634L22.3769 26.3108H22.8848H23.3926L23.4098 25.0029C23.4257 23.7844 23.4345 23.6894 23.5371 23.6146C23.6736 23.515 23.6911 23.515 23.8276 23.6146C23.9302 23.6894 23.9389 23.7844 23.9549 24.9973L23.972 26.2998L24.4941 26.323C24.7812 26.3358 25.0353 26.3368 25.0587 26.3252C25.0821 26.3136 25.1017 25.7893 25.1021 25.16C25.103 23.9245 25.1373 23.748 25.3833 23.713C25.6448 23.6758 25.6688 23.795 25.6688 25.1283C25.6688 25.8062 25.688 26.3724 25.7114 26.3866C25.7349 26.4009 25.9497 26.4306 26.1888 26.4528L26.6236 26.4932L26.6429 25.3056C26.6628 24.0725 26.6906 23.9309 26.9131 23.9309C27.1276 23.9309 27.1445 24.0307 27.1445 25.2961C27.1445 26.7002 27.0776 26.5472 27.7263 26.6248L28.0526 26.6638V25.6127C28.0526 25.0346 28.0776 24.4962 28.108 24.4162C28.1761 24.2374 28.4164 24.2157 28.5047 24.3805C28.5396 24.4456 28.5635 24.9514 28.5635 25.626C28.5635 26.7577 28.5639 26.7621 28.6912 26.7909C29.0402 26.8701 29.3336 26.9315 29.3686 26.9328C29.39 26.9335 29.4156 26.4888 29.4254 25.9444C29.4399 25.1366 29.4596 24.9383 29.5324 24.8656C29.6333 24.7652 29.7859 24.8009 29.8383 24.9373C29.8664 25.0104 29.9302 26.4767 29.9265 26.9649C29.9259 27.0534 29.9823 27.0958 30.1668 27.1452C30.2995 27.1807 30.4528 27.227 30.5074 27.248C30.5993 27.2834 30.6067 27.2214 30.6067 26.4127C30.6067 25.4877 30.6491 25.3146 30.8654 25.3562C31.0171 25.3854 31.0462 25.573 31.0541 26.57L31.0608 27.4241L31.4155 27.5699C31.6106 27.65 31.7894 27.704 31.8128 27.6898C31.8362 27.6757 31.8554 27.4735 31.8554 27.2406C31.8554 26.892 31.8824 26.7647 32.0079 26.5214C32.2365 26.0783 32.2279 25.5519 31.9839 25.0598C31.7509 24.59 31.5315 24.3305 31.0321 23.9343C29.5011 22.7196 26.6963 21.9966 23.5688 22.0105C22.8451 22.0137 22.0835 22.0537 21.554 22.1163ZM15.3318 29.9177C15.2679 29.9946 15.2511 30.6741 15.2385 33.7016L15.2232 37.3918L15.5251 37.5745C15.6911 37.675 15.8449 37.7572 15.8668 37.7572C15.8887 37.7572 15.9066 36.0289 15.9066 33.9166C15.9066 30.5322 15.8961 30.061 15.8182 29.95C15.7122 29.7988 15.4454 29.7811 15.3318 29.9177Z" fill="#D801FF"/>
</svg>
